<mxfile host="Electron" agent="Mozilla/5.0 (Windows NT 10.0; Win64; x64) AppleWebKit/537.36 (KHTML, like Gecko) draw.io/24.7.8 Chrome/128.0.6613.36 Electron/32.0.1 Safari/537.36" version="24.7.8">
  <diagram name="Страница — 1" id="ibYUITMm4eIlM9njPLdp">
    <mxGraphModel dx="712" dy="570" grid="1" gridSize="10" guides="1" tooltips="1" connect="1" arrows="1" fold="1" page="1" pageScale="1" pageWidth="827" pageHeight="1169" math="0" shadow="0">
      <root>
        <mxCell id="0" />
        <mxCell id="1" parent="0" />
        <mxCell id="dCR8DrWqf3qD1d5ul8ua-6" style="edgeStyle=orthogonalEdgeStyle;rounded=0;orthogonalLoop=1;jettySize=auto;html=1;exitX=0.5;exitY=0;exitDx=0;exitDy=0;entryX=0.5;entryY=1;entryDx=0;entryDy=0;" edge="1" parent="1" source="dCR8DrWqf3qD1d5ul8ua-1" target="dCR8DrWqf3qD1d5ul8ua-5">
          <mxGeometry relative="1" as="geometry" />
        </mxCell>
        <mxCell id="dCR8DrWqf3qD1d5ul8ua-1" value="Слабая сущность" style="rounded=1;arcSize=10;whiteSpace=wrap;html=1;align=center;" vertex="1" parent="1">
          <mxGeometry x="20" y="280" width="100" height="40" as="geometry" />
        </mxCell>
        <mxCell id="dCR8DrWqf3qD1d5ul8ua-2" value="Сущность" style="rounded=1;arcSize=10;whiteSpace=wrap;html=1;align=center;" vertex="1" parent="1">
          <mxGeometry x="20" y="120" width="100" height="40" as="geometry" />
        </mxCell>
        <mxCell id="dCR8DrWqf3qD1d5ul8ua-3" value="&lt;h1&gt;Спроектируйте E/R-диаграмму, описывающую саму модель E/R.&lt;/h1&gt;" style="text;html=1;align=center;verticalAlign=middle;whiteSpace=wrap;rounded=0;" vertex="1" parent="1">
          <mxGeometry y="20" width="810" height="30" as="geometry" />
        </mxCell>
        <mxCell id="dCR8DrWqf3qD1d5ul8ua-4" value="&lt;p class=&quot;MsoNormal&quot;&gt;Сущности E/R: сущность, связь, атрибут сущности, атрибут&lt;br&gt;связи, слабая сущность, слабая связь.&lt;/p&gt;" style="text;html=1;align=center;verticalAlign=middle;whiteSpace=wrap;rounded=0;" vertex="1" parent="1">
          <mxGeometry y="70" width="460" height="30" as="geometry" />
        </mxCell>
        <mxCell id="dCR8DrWqf3qD1d5ul8ua-7" style="edgeStyle=orthogonalEdgeStyle;rounded=0;orthogonalLoop=1;jettySize=auto;html=1;exitX=0.5;exitY=0;exitDx=0;exitDy=0;entryX=0.5;entryY=1;entryDx=0;entryDy=0;" edge="1" parent="1" source="dCR8DrWqf3qD1d5ul8ua-5" target="dCR8DrWqf3qD1d5ul8ua-2">
          <mxGeometry relative="1" as="geometry" />
        </mxCell>
        <mxCell id="dCR8DrWqf3qD1d5ul8ua-5" value="is-a" style="shape=hexagon;perimeter=hexagonPerimeter2;whiteSpace=wrap;html=1;fixedSize=1;" vertex="1" parent="1">
          <mxGeometry x="35" y="200" width="70" height="40" as="geometry" />
        </mxCell>
        <mxCell id="dCR8DrWqf3qD1d5ul8ua-8" value="Сущность" style="rounded=1;arcSize=10;whiteSpace=wrap;html=1;align=center;" vertex="1" parent="1">
          <mxGeometry x="680" y="120" width="100" height="40" as="geometry" />
        </mxCell>
        <mxCell id="dCR8DrWqf3qD1d5ul8ua-9" value="Имеет" style="shape=rhombus;double=1;perimeter=rhombusPerimeter;whiteSpace=wrap;html=1;align=center;" vertex="1" parent="1">
          <mxGeometry x="670" y="190" width="120" height="60" as="geometry" />
        </mxCell>
        <mxCell id="dCR8DrWqf3qD1d5ul8ua-10" value="Атрибут&lt;div&gt;сущности&lt;/div&gt;" style="shape=ext;margin=3;double=1;whiteSpace=wrap;html=1;align=center;" vertex="1" parent="1">
          <mxGeometry x="680" y="280" width="100" height="40" as="geometry" />
        </mxCell>
        <mxCell id="dCR8DrWqf3qD1d5ul8ua-19" style="edgeStyle=orthogonalEdgeStyle;rounded=0;orthogonalLoop=1;jettySize=auto;html=1;exitX=0.5;exitY=0;exitDx=0;exitDy=0;entryX=0.5;entryY=1;entryDx=0;entryDy=0;" edge="1" parent="1" source="dCR8DrWqf3qD1d5ul8ua-20" target="dCR8DrWqf3qD1d5ul8ua-23">
          <mxGeometry relative="1" as="geometry" />
        </mxCell>
        <mxCell id="dCR8DrWqf3qD1d5ul8ua-20" value="Слабая&lt;div&gt;связь&lt;/div&gt;" style="rounded=1;arcSize=10;whiteSpace=wrap;html=1;align=center;" vertex="1" parent="1">
          <mxGeometry x="160" y="280" width="100" height="40" as="geometry" />
        </mxCell>
        <mxCell id="dCR8DrWqf3qD1d5ul8ua-21" value="Связь" style="rounded=1;arcSize=10;whiteSpace=wrap;html=1;align=center;" vertex="1" parent="1">
          <mxGeometry x="160" y="120" width="100" height="40" as="geometry" />
        </mxCell>
        <mxCell id="dCR8DrWqf3qD1d5ul8ua-22" style="edgeStyle=orthogonalEdgeStyle;rounded=0;orthogonalLoop=1;jettySize=auto;html=1;exitX=0.5;exitY=0;exitDx=0;exitDy=0;entryX=0.5;entryY=1;entryDx=0;entryDy=0;" edge="1" parent="1" source="dCR8DrWqf3qD1d5ul8ua-23" target="dCR8DrWqf3qD1d5ul8ua-21">
          <mxGeometry relative="1" as="geometry" />
        </mxCell>
        <mxCell id="dCR8DrWqf3qD1d5ul8ua-23" value="is-a" style="shape=hexagon;perimeter=hexagonPerimeter2;whiteSpace=wrap;html=1;fixedSize=1;" vertex="1" parent="1">
          <mxGeometry x="175" y="200" width="70" height="40" as="geometry" />
        </mxCell>
        <mxCell id="dCR8DrWqf3qD1d5ul8ua-26" value="Связь" style="shape=ext;margin=3;double=1;whiteSpace=wrap;html=1;align=center;" vertex="1" parent="1">
          <mxGeometry x="364" y="120" width="100" height="40" as="geometry" />
        </mxCell>
        <mxCell id="dCR8DrWqf3qD1d5ul8ua-27" value="Связывает" style="shape=rhombus;double=1;perimeter=rhombusPerimeter;whiteSpace=wrap;html=1;align=center;" vertex="1" parent="1">
          <mxGeometry x="510" y="110" width="120" height="60" as="geometry" />
        </mxCell>
        <mxCell id="dCR8DrWqf3qD1d5ul8ua-28" value="" style="shape=link;html=1;rounded=0;exitX=1;exitY=0.5;exitDx=0;exitDy=0;entryX=0;entryY=0.5;entryDx=0;entryDy=0;" edge="1" parent="1" source="dCR8DrWqf3qD1d5ul8ua-26" target="dCR8DrWqf3qD1d5ul8ua-27">
          <mxGeometry width="100" relative="1" as="geometry">
            <mxPoint x="480" y="230" as="sourcePoint" />
            <mxPoint x="580" y="230" as="targetPoint" />
          </mxGeometry>
        </mxCell>
        <mxCell id="dCR8DrWqf3qD1d5ul8ua-29" value="" style="endArrow=none;html=1;rounded=0;entryX=0;entryY=0.5;entryDx=0;entryDy=0;exitX=1;exitY=0.5;exitDx=0;exitDy=0;" edge="1" parent="1" source="dCR8DrWqf3qD1d5ul8ua-27" target="dCR8DrWqf3qD1d5ul8ua-8">
          <mxGeometry width="50" height="50" relative="1" as="geometry">
            <mxPoint x="640" y="220" as="sourcePoint" />
            <mxPoint x="690" y="170" as="targetPoint" />
          </mxGeometry>
        </mxCell>
        <mxCell id="dCR8DrWqf3qD1d5ul8ua-30" value="Атрибут&lt;div&gt;связи&lt;/div&gt;" style="shape=ext;margin=3;double=1;whiteSpace=wrap;html=1;align=center;" vertex="1" parent="1">
          <mxGeometry x="360" y="280" width="100" height="40" as="geometry" />
        </mxCell>
        <mxCell id="dCR8DrWqf3qD1d5ul8ua-32" value="" style="endArrow=none;html=1;rounded=0;entryX=0.5;entryY=1;entryDx=0;entryDy=0;exitX=0.5;exitY=0;exitDx=0;exitDy=0;" edge="1" parent="1" source="dCR8DrWqf3qD1d5ul8ua-9" target="dCR8DrWqf3qD1d5ul8ua-8">
          <mxGeometry width="50" height="50" relative="1" as="geometry">
            <mxPoint x="530" y="250" as="sourcePoint" />
            <mxPoint x="580" y="200" as="targetPoint" />
          </mxGeometry>
        </mxCell>
        <mxCell id="dCR8DrWqf3qD1d5ul8ua-33" value="" style="shape=link;html=1;rounded=0;entryX=0.5;entryY=1;entryDx=0;entryDy=0;exitX=0.5;exitY=0;exitDx=0;exitDy=0;" edge="1" parent="1" source="dCR8DrWqf3qD1d5ul8ua-10" target="dCR8DrWqf3qD1d5ul8ua-9">
          <mxGeometry width="100" relative="1" as="geometry">
            <mxPoint x="500" y="220" as="sourcePoint" />
            <mxPoint x="600" y="220" as="targetPoint" />
          </mxGeometry>
        </mxCell>
        <mxCell id="dCR8DrWqf3qD1d5ul8ua-34" value="Имеет" style="shape=rhombus;double=1;perimeter=rhombusPerimeter;whiteSpace=wrap;html=1;align=center;" vertex="1" parent="1">
          <mxGeometry x="350" y="190" width="120" height="60" as="geometry" />
        </mxCell>
        <mxCell id="dCR8DrWqf3qD1d5ul8ua-36" value="" style="endArrow=none;html=1;rounded=0;entryX=0.5;entryY=1;entryDx=0;entryDy=0;exitX=0.5;exitY=0;exitDx=0;exitDy=0;" edge="1" parent="1" source="dCR8DrWqf3qD1d5ul8ua-34">
          <mxGeometry width="50" height="50" relative="1" as="geometry">
            <mxPoint x="210" y="250" as="sourcePoint" />
            <mxPoint x="410" y="160" as="targetPoint" />
          </mxGeometry>
        </mxCell>
        <mxCell id="dCR8DrWqf3qD1d5ul8ua-37" value="" style="shape=link;html=1;rounded=0;entryX=0.5;entryY=1;entryDx=0;entryDy=0;exitX=0.5;exitY=0;exitDx=0;exitDy=0;" edge="1" parent="1" target="dCR8DrWqf3qD1d5ul8ua-34">
          <mxGeometry width="100" relative="1" as="geometry">
            <mxPoint x="410" y="280" as="sourcePoint" />
            <mxPoint x="280" y="220" as="targetPoint" />
          </mxGeometry>
        </mxCell>
        <mxCell id="dCR8DrWqf3qD1d5ul8ua-38" value="n" style="text;strokeColor=none;fillColor=none;html=1;fontSize=24;fontStyle=1;verticalAlign=middle;align=center;" vertex="1" parent="1">
          <mxGeometry x="410" y="240" width="30" height="40" as="geometry" />
        </mxCell>
        <mxCell id="dCR8DrWqf3qD1d5ul8ua-39" value="1" style="text;strokeColor=none;fillColor=none;html=1;fontSize=24;fontStyle=1;verticalAlign=middle;align=center;" vertex="1" parent="1">
          <mxGeometry x="410" y="160" width="20" height="40" as="geometry" />
        </mxCell>
        <mxCell id="dCR8DrWqf3qD1d5ul8ua-40" value="n" style="text;strokeColor=none;fillColor=none;html=1;fontSize=24;fontStyle=1;verticalAlign=middle;align=center;" vertex="1" parent="1">
          <mxGeometry x="640" y="100" width="30" height="40" as="geometry" />
        </mxCell>
        <mxCell id="dCR8DrWqf3qD1d5ul8ua-41" value="m" style="text;strokeColor=none;fillColor=none;html=1;fontSize=24;fontStyle=1;verticalAlign=middle;align=center;" vertex="1" parent="1">
          <mxGeometry x="480" y="100" width="20" height="40" as="geometry" />
        </mxCell>
        <mxCell id="dCR8DrWqf3qD1d5ul8ua-42" value="1" style="text;strokeColor=none;fillColor=none;html=1;fontSize=24;fontStyle=1;verticalAlign=middle;align=center;" vertex="1" parent="1">
          <mxGeometry x="730" y="160" width="20" height="40" as="geometry" />
        </mxCell>
        <mxCell id="dCR8DrWqf3qD1d5ul8ua-43" value="n" style="text;strokeColor=none;fillColor=none;html=1;fontSize=24;fontStyle=1;verticalAlign=middle;align=center;" vertex="1" parent="1">
          <mxGeometry x="730" y="240" width="30" height="40" as="geometry" />
        </mxCell>
      </root>
    </mxGraphModel>
  </diagram>
</mxfile>
